<?xml version="1.0" encoding="utf-8"?>
<!-- Generator: Adobe Illustrator 22.1.0, SVG Export Plug-In . SVG Version: 6.00 Build 0)  -->
<svg version="1.1" id="Layer_1" xmlns="http://www.w3.org/2000/svg" xmlns:xlink="http://www.w3.org/1999/xlink" x="0px" y="0px"
	 viewBox="0 0 52.1 52.1" style="enable-background:new 0 0 52.1 52.1;" xml:space="preserve">
<style type="text/css">
	.st0{opacity:0.77;fill:url(#SVGID_1_);}
	.st1{fill:#FFF8EE;}
	.st2{fill:#FFFFFF;}
	.st3{fill:#2D8B43;}
	.st4{opacity:0.86;}
	.st5{fill:#47804C;}
	.st6{fill:#517B43;}
	.st7{fill:#538240;}
	.st8{fill:#728F57;}
	.st9{fill:#5A8F50;}
	.st10{fill:#2A713E;}
	.st11{fill:#648D4D;}
	.st12{fill:#548B4C;}
	.st13{fill:#877E58;}
	.st14{opacity:0.38;fill:#C0966B;}
	.st15{opacity:0.19;fill:url(#SVGID_2_);}
	.st16{fill:#A1A3A6;}
</style>
<g>
	<circle class="st2" cx="26.1" cy="26.1" r="26.1"/>
	<g>
		<path class="st3" d="M35.6,17.5c0,0,3.5-2.5,1.6-5.6c-1.9-3.1-7.3-0.9-11.1,1.6c0,0-8-6.2-13.6,2.1c0,0-3.7,6.5,1.9,10.9
			c0,0,3.2,2.3,7,1.8c0.1,0,0.3-0.1,0.4-0.2c0.4-0.3,1.3-1.4,2.4-5l4.2,0l1.3,3.6c0,0,0.7,1.6-1.6,1.5c0,0-0.3,0.2,0,0.6
			c0.3,0.4,12-0.3,13.9-6.2C41.9,22.7,43.2,16.4,35.6,17.5z M21.7,24.5c-1.3,3.6-5.2,1.6-5.2,1.6c-3.8-1.9-2.2-7.6-2.2-7.6
			c0.6-3.3,4-6.8,7.8-5.7c3.9,1.1,2.6,3.8,2.6,3.8L21.7,24.5z M24.4,21.9l2-5.3l1.8,5.3L24.4,21.9z M30.2,18.9l-1.7-4.5
			c-0.1-0.1,0-0.3,0.1-0.4c0.4-0.6,1.9-1.4,1.9-1.4c1-0.6,3.3-0.8,4.3-0.3c2,1,1.1,3.5,0.5,4.2c-0.9,1-1.4,1.3-4.5,2.6
			C30.5,19.2,30.3,19.1,30.2,18.9z M35.6,26.7c-2.1,0.8-2.7-0.8-2.7-0.8l-1.9-5.3c-0.1-0.2,0-0.4,0.2-0.5c1.1-0.6,1.8-1,2.7-1.3
			c0.7-0.2,4.8-1.1,5.6,1.8C40.3,23.7,37.6,25.9,35.6,26.7z"/>
		<g class="st4">
			<path class="st5" d="M15.6,33.7c0,0,0.1,0,0.2,0.2c0.1,0.1,0.2,0.4,0.1,0.8c0,0.2-0.1,0.4-0.2,0.7c0,0-2.7,2.2,0.5,5.1
				c0,0,1.7-1.3,1.7-2.7s-0.8-2.4-1.7-3L15.9,34L15.6,33.7z"/>
			<path class="st6" d="M19.3,36.9c0,0-0.7,0.9-0.6,1.5c0,0-0.7,3,1.7,4.4c0,0,2.2-0.5,0.9-3.4C21.4,39.4,20.1,36.8,19.3,36.9z"/>
			<path class="st7" d="M25.7,38.7c0,0,0.7,2.8,1.3,3.4c0.6,0.5,2.2,1.9,4.4,1.1c0,0,0.1-0.1,0-0.4s0-1-0.4-1.5s-1.8-2.2-3.4-2.1
				C27.6,39.1,26.2,38.5,25.7,38.7z"/>
			<path class="st8" d="M34.9,35.8c0,0,2.8-5.7,5.9-5.2c0,0,1.1-0.1,0.9,0.8c-0.2,0.8-0.1,3.3-5.1,4.2c0,0-1.9,0.9-1.7,0.6
				C34.9,35.8,34.9,35.8,34.9,35.8z"/>
			<path class="st9" d="M32.4,37.3c0,0-1.3-5.7,2.2-7.1c0,0,0.5-0.3,0.5,0.4c0,0,0.4,0.9,0.3,1.7c-0.1,0.8-0.8,3.5-2.5,4.6
				C33,37,32.3,37.6,32.4,37.3z"/>
			<path class="st7" d="M24.9,38.5c0,0-0.2,0,0-0.8c0,0-0.4-1.4,0.7-2.9s1.4-1.9,3.1-2.1c0,0,0.2,0.2,0,0.7c0,0,0.4,1.3-0.3,2.6
				S26.2,38.5,24.9,38.5z"/>
			<path class="st10" d="M16.7,34.4c0.2-0.8,1.3-3.4,5.1-2.3c0.2,0.1,0.3,0.3,0.1,0.4c-0.5,0.7-1.9,2.4-3,2.5
				c-1.3,0.1-1.4-0.1-2.1-0.4C16.7,34.7,16.6,34.6,16.7,34.4z"/>
			<path class="st11" d="M33.9,37.1c0,0,1.4,5.7,6.1,3.3c0,0,0.9-0.5,0.5-0.9c-0.5-0.4-1.5-2.9-2.3-3.2c0,0-1.7-1.2-3.1,0
				C35.1,36.3,34.3,36.7,33.9,37.1S33.9,37.1,33.9,37.1"/>
			<path class="st12" d="M29.6,38.4c0,0,0.8,1.5,1.2,2s0.1,0.8,1.6,1.6s3.7,0,3.7,0s0.9-0.2,0-0.8c-0.9-0.7-1.9-2.8-3.2-3.3
				C31.7,37.5,29.6,38.4,29.6,38.4"/>
			<path class="st12" d="M30,38.1c0,0,2-1.4,2.1-3.7c0,0,0-0.4-0.2-0.6s0-0.2,0-0.5s-0.2-1.4-0.7-1.2c-0.5,0.3-2.6,1.6-2.4,3.6
				c0.2,2,1,2.3,1,2.3"/>
			<path class="st7" d="M22.3,38.3c0,0,0.2,2.2,0.9,3c0.7,0.8-0.3,1.7,2.5,2.8c0,0,0.6,0.4,0.7-1.2c0.1-1.6-0.7-3.6-1.5-3.7
				C24.9,39.2,23.2,38,22.3,38.3"/>
			<path class="st5" d="M20.7,36.9c0,0,1.8,0.3,3.1-0.7c1.3-1.1,0.9-2.5,1.3-2.9c0.4-0.4-0.5-0.2-0.5-0.2s-3.5-0.3-4.1,3.8l0,0
				C20.5,36.8,20.4,36.9,20.7,36.9"/>
			<path class="st10" d="M15.2,33.3c0,0-0.8,1.6-2.9,2.1c0,0-1.5,0.4-2.3,0.1c0,0,0.5-1.3,1.4-1.7C11.3,33.8,16,32.1,15.2,33.3z"/>
			<path class="st13" d="M15.2,33c0.2,0.3,0.3,0.6,0.5,0.9c0.2,0.3,0.4,0.5,0.7,0.8c1.7,1.6,3.7,2.8,5.9,3.6c0.3,0.1,0.7,0.2,1,0.3
				c0.5,0.1,0.9,0.1,1.4,0.1c0.8,0,1.6,0,2.4,0.1c0.6,0.2,1.2,0.1,1.7-0.1c1.2-0.3,2.5-0.6,3.7-1.1c0.5-0.2,1-0.5,1.6-0.5
				c0.2,0-0.2,0.1,0,0c0.2-0.1,0.9-0.6,0.6-0.6c0.2-0.2,0.3-0.4,0.5-0.6c-0.4-0.2-0.8,0.1-1.2,0.4c-0.7,0.6-1.7,0.9-2.6,1.2
				c-1.5,0.4-3,0.9-4.5,1c-0.5,0-1.1,0-1.6-0.1C23,38.1,21,37.1,19,36c-0.8-0.4-1.7-0.9-2.3-1.5c-0.6-0.6-1.1-1.5-1.6-2.2
				c-0.9-1.3-2-2.4-3.3-3.2c-0.5,0.4,1.2,1.4,1.5,1.7C14,31.4,14.7,32.2,15.2,33z"/>
			<path class="st14" d="M23,38.5c-0.3-0.1-1.2-0.3-1.2-0.6c0-0.1-2.2-1.4-0.8-0.9c0.3,0.1,5.2,3.4,12.5-0.4c0,0,0,0,0.1,0
				c0.3-0.2,2.7-1.6,1.1-0.2c-1.6,1.5-3.8,1.3-5.7,2.2c-0.1,0-0.2,0.1-0.3,0.1c-0.3,0-1.3,0.1-1.6,0.1C24.9,38.7,23.8,38.7,23,38.5z
				"/>
		</g>
		<linearGradient id="SVGID_1_" gradientUnits="userSpaceOnUse" x1="26.7" y1="27.9657" x2="26.6362" y2="14.7389">
			<stop  offset="0.1219" style="stop-color:#B3B5B7"/>
			<stop  offset="0.506" style="stop-color:#757678"/>
			<stop  offset="0.7884" style="stop-color:#4F4F50"/>
			<stop  offset="0.9347" style="stop-color:#404041"/>
		</linearGradient>
		<path style="opacity:0.19;fill:url(#SVGID_1_);" d="M35.6,17.5c0,0,3.5-2.5,1.6-5.6c-1.9-3.1-7.3-0.9-11.1,1.6c0,0-8-6.2-13.6,2.1
			c0,0-3.7,6.5,1.9,10.9c0,0,3.2,2.3,7,1.8c0.1,0,0.3-0.1,0.4-0.2c0.4-0.3,1.3-1.4,2.4-5l4.2,0l1.3,3.6c0,0,0.7,1.6-1.6,1.5
			c0,0-0.3,0.2,0,0.6c0.3,0.4,12-0.3,13.9-6.2C41.9,22.7,43.2,16.4,35.6,17.5z M21.7,24.5c-1.3,3.6-5.2,1.6-5.2,1.6
			c-3.8-1.9-2.2-7.6-2.2-7.6c0.6-3.3,4-6.8,7.8-5.7c3.9,1.1,2.6,3.8,2.6,3.8L21.7,24.5z M24.4,21.9l2-5.3l1.8,5.3L24.4,21.9z
			 M30.2,18.9l-1.7-4.5c-0.1-0.1,0-0.3,0.1-0.4c0.4-0.6,1.9-1.4,1.9-1.4c1-0.6,3.3-0.8,4.3-0.3c2,1,1.1,3.5,0.5,4.2
			c-0.9,1-1.4,1.3-4.5,2.6C30.5,19.2,30.3,19.1,30.2,18.9z M35.6,26.7c-2.1,0.8-2.7-0.8-2.7-0.8l-1.9-5.3c-0.1-0.2,0-0.4,0.2-0.5
			c1.1-0.6,1.8-1,2.7-1.3c0.7-0.2,4.8-1.1,5.6,1.8C40.3,23.7,37.6,25.9,35.6,26.7z"/>
	</g>
</g>
</svg>
