<?xml version="1.0" encoding="utf-8"?>
<!-- Generator: Adobe Illustrator 22.1.0, SVG Export Plug-In . SVG Version: 6.00 Build 0)  -->
<svg version="1.1" id="Layer_1" xmlns="http://www.w3.org/2000/svg" xmlns:xlink="http://www.w3.org/1999/xlink" x="0px" y="0px"
	 viewBox="0 0 34.7 34.9" style="enable-background:new 0 0 34.7 34.9;" xml:space="preserve">
<style type="text/css">
	.st0{opacity:0.77;fill:url(#SVGID_1_);}
	.st1{fill:#FFF8EE;}
	.st2{fill:#FFFFFF;}
	.st3{fill:#2D8B43;}
	.st4{opacity:0.86;}
	.st5{fill:#47804C;}
	.st6{fill:#517B43;}
	.st7{fill:#538240;}
	.st8{fill:#728F57;}
	.st9{fill:#5A8F50;}
	.st10{fill:#2A713E;}
	.st11{fill:#648D4D;}
	.st12{fill:#548B4C;}
	.st13{fill:#877E58;}
	.st14{opacity:0.38;fill:#C0966B;}
	.st15{opacity:0.19;fill:url(#SVGID_2_);}
	.st16{fill:#A1A3A6;}
</style>
<path class="st16" d="M14.9,0C6.4-0.5-0.5,6.4,0,14.9c0.4,6.7,5.7,12.2,12.4,12.9c3.5,0.4,6.7-0.5,9.3-2.3l11.2,9.2
	c0.4,0.3,0.9,0.3,1.2-0.1l0.3-0.3c0.3-0.3,0.3-0.8,0.1-1.2l-8.8-11.7c1.7-2.6,2.5-5.8,2.1-9.2C27,5.7,21.5,0.5,14.9,0z M15.7,24.3
	C8.5,25.5,2.4,19.3,3.6,12.2c0.7-4.3,4.2-7.9,8.6-8.6c7.2-1.2,13.3,4.9,12.1,12.1C23.6,20.1,20.1,23.6,15.7,24.3z"/>
</svg>
